<mxfile host="app.diagrams.net" modified="2021-04-09T08:05:36.507Z" agent="5.0 (Windows)" etag="guEsb9psMYI-bzRctNiO" version="14.5.8" type="github">
  <diagram id="EFh0KBRHZETYjnB3pXdq" name="Page-1">
    <mxGraphModel dx="868" dy="489" grid="1" gridSize="10" guides="1" tooltips="1" connect="1" arrows="1" fold="1" page="1" pageScale="1" pageWidth="1169" pageHeight="827" math="0" shadow="0">
      <root>
        <mxCell id="0" />
        <mxCell id="1" parent="0" />
        <mxCell id="dkCvGYGIyC4ErIjuaoyi-1" value="" style="edgeStyle=orthogonalEdgeStyle;rounded=0;orthogonalLoop=1;jettySize=auto;html=1;entryX=0;entryY=0.5;entryDx=0;entryDy=0;" edge="1" parent="1" source="dkCvGYGIyC4ErIjuaoyi-2" target="dkCvGYGIyC4ErIjuaoyi-4">
          <mxGeometry relative="1" as="geometry">
            <mxPoint x="280" y="414" as="targetPoint" />
          </mxGeometry>
        </mxCell>
        <mxCell id="dkCvGYGIyC4ErIjuaoyi-2" value="Patient arrives" style="ellipse;whiteSpace=wrap;html=1;" vertex="1" parent="1">
          <mxGeometry x="90" y="374" width="120" height="80" as="geometry" />
        </mxCell>
        <mxCell id="dkCvGYGIyC4ErIjuaoyi-10" value="" style="edgeStyle=orthogonalEdgeStyle;rounded=0;orthogonalLoop=1;jettySize=auto;html=1;entryX=0.022;entryY=0.681;entryDx=0;entryDy=0;entryPerimeter=0;" edge="1" parent="1" source="dkCvGYGIyC4ErIjuaoyi-4" target="dkCvGYGIyC4ErIjuaoyi-8">
          <mxGeometry relative="1" as="geometry" />
        </mxCell>
        <mxCell id="dkCvGYGIyC4ErIjuaoyi-4" value="Gives the report to nurse/assistant." style="shape=document;whiteSpace=wrap;html=1;boundedLbl=1;" vertex="1" parent="1">
          <mxGeometry x="280" y="374" width="120" height="80" as="geometry" />
        </mxCell>
        <mxCell id="dkCvGYGIyC4ErIjuaoyi-8" value="&lt;div&gt;Nurse/assistant&lt;/div&gt;&lt;div&gt;scans the document.&lt;/div&gt;" style="shape=manualInput;whiteSpace=wrap;html=1;spacingTop=17;" vertex="1" parent="1">
          <mxGeometry x="470" y="350" width="100" height="94" as="geometry" />
        </mxCell>
      </root>
    </mxGraphModel>
  </diagram>
</mxfile>
